<mxfile host="app.diagrams.net" modified="2023-04-28T07:32:33.437Z" agent="Mozilla/5.0 (Windows NT 10.0; Win64; x64) AppleWebKit/537.36 (KHTML, like Gecko) Chrome/112.0.0.0 Safari/537.36 Edg/112.0.1722.58" version="21.2.3" etag="RFW_zsaEBbD7uqvynHv0" type="github">
  <diagram name="第 1 页" id="N5TIYzBTPYJoOJchHFVi">
    <mxGraphModel>
      <root>
        <mxCell id="0" />
        <mxCell id="1" parent="0" />
      </root>
    </mxGraphModel>
  </diagram>
</mxfile>
